<svg width="20" height="21" viewBox="0 0 20 21" fill="none" xmlns="http://www.w3.org/2000/svg">
<g clip-path="url(#clip0_2126_28018)">
<path d="M10 20.6364C12.6522 20.6364 15.1957 19.5828 17.0711 17.7074C18.9464 15.8321 20 13.2885 20 10.6364C20 7.98419 18.9464 5.44065 17.0711 3.56528C15.1957 1.68992 12.6522 0.636353 10 0.636353C7.34784 0.636353 4.8043 1.68992 2.92893 3.56528C1.05357 5.44065 0 7.98419 0 10.6364C0 13.2885 1.05357 15.8321 2.92893 17.7074C4.8043 19.5828 7.34784 20.6364 10 20.6364ZM8.4375 13.7614H9.375V11.2614H8.4375C7.91797 11.2614 7.5 10.8434 7.5 10.3239C7.5 9.80432 7.91797 9.38635 8.4375 9.38635H10.3125C10.832 9.38635 11.25 9.80432 11.25 10.3239V13.7614H11.5625C12.082 13.7614 12.5 14.1793 12.5 14.6989C12.5 15.2184 12.082 15.6364 11.5625 15.6364H8.4375C7.91797 15.6364 7.5 15.2184 7.5 14.6989C7.5 14.1793 7.91797 13.7614 8.4375 13.7614ZM10 5.63635C10.3315 5.63635 10.6495 5.76805 10.8839 6.00247C11.1183 6.23689 11.25 6.55483 11.25 6.88635C11.25 7.21787 11.1183 7.53582 10.8839 7.77024C10.6495 8.00466 10.3315 8.13635 10 8.13635C9.66848 8.13635 9.35054 8.00466 9.11612 7.77024C8.8817 7.53582 8.75 7.21787 8.75 6.88635C8.75 6.55483 8.8817 6.23689 9.11612 6.00247C9.35054 5.76805 9.66848 5.63635 10 5.63635Z" fill="white"/>
</g>
<defs>
<clipPath id="clip0_2126_28018">
<rect width="20" height="20" fill="white" transform="translate(0 0.636353)"/>
</clipPath>
</defs>
</svg>
