<svg width="28" height="28" viewBox="0 0 28 28" fill="none" xmlns="http://www.w3.org/2000/svg">
<rect width="28" height="28" rx="14" fill="white"/>
<path d="M14.7567 6.24023C14.3382 5.75195 13.6585 5.75195 13.24 6.24023L7.88286 12.4902C7.46434 12.9785 7.46434 13.7715 7.88286 14.2598C8.30139 14.748 8.98108 14.748 9.39961 14.2598L14.0001 8.89258L18.6005 14.2559C19.019 14.7441 19.6987 14.7441 20.1172 14.2559C20.5358 13.7676 20.5358 12.9746 20.1172 12.4863L14.7601 6.23633L14.7567 6.24023ZM20.1139 19.9902L14.7567 13.7402C14.3382 13.252 13.6585 13.252 13.24 13.7402L7.88286 19.9902C7.46434 20.4785 7.46434 21.2715 7.88286 21.7598C8.30139 22.248 8.98108 22.248 9.39961 21.7598L14.0001 16.3926L18.6005 21.7559C19.019 22.2441 19.6987 22.2441 20.1172 21.7559C20.5358 21.2676 20.5358 20.4746 20.1172 19.9863L20.1139 19.9902Z" fill="black" fill-opacity="0.5"/>
</svg>
