<svg width="13" height="12" viewBox="0 0 13 12" fill="none" xmlns="http://www.w3.org/2000/svg">
<g clip-path="url(#clip0_2104_17698)">
<path d="M7.625 0C7.21016 0 6.875 0.335156 6.875 0.75C6.875 1.16484 7.21016 1.5 7.625 1.5H9.56328L4.84531 6.22031C4.55234 6.51328 4.55234 6.98906 4.84531 7.28203C5.13828 7.575 5.61406 7.575 5.90703 7.28203L10.625 2.56172V4.5C10.625 4.91484 10.9602 5.25 11.375 5.25C11.7898 5.25 12.125 4.91484 12.125 4.5V0.75C12.125 0.335156 11.7898 0 11.375 0H7.625ZM2 0.75C0.964062 0.75 0.125 1.58906 0.125 2.625V10.125C0.125 11.1609 0.964062 12 2 12H9.5C10.5359 12 11.375 11.1609 11.375 10.125V7.5C11.375 7.08516 11.0398 6.75 10.625 6.75C10.2102 6.75 9.875 7.08516 9.875 7.5V10.125C9.875 10.3313 9.70625 10.5 9.5 10.5H2C1.79375 10.5 1.625 10.3313 1.625 10.125V2.625C1.625 2.41875 1.79375 2.25 2 2.25H4.625C5.03984 2.25 5.375 1.91484 5.375 1.5C5.375 1.08516 5.03984 0.75 4.625 0.75H2Z" fill="black"/>
</g>
<defs>
<clipPath id="clip0_2104_17698">
<rect width="12" height="12" fill="white" transform="translate(0.125)"/>
</clipPath>
</defs>
</svg>
