<svg width="25" height="22" viewBox="0 0 25 22" fill="none" xmlns="http://www.w3.org/2000/svg">
<path d="M2 0.5C2.82969 0.5 3.5 1.17031 3.5 2V17.75C3.5 18.1625 3.8375 18.5 4.25 18.5H23C23.8297 18.5 24.5 19.1703 24.5 20C24.5 20.8297 23.8297 21.5 23 21.5H4.25C2.17812 21.5 0.5 19.8219 0.5 17.75V2C0.5 1.17031 1.17031 0.5 2 0.5ZM6.5 5C6.5 4.17031 7.17031 3.5 8 3.5H12.5C13.3297 3.5 14 4.17031 14 5C14 5.82969 13.3297 6.5 12.5 6.5H8C7.17031 6.5 6.5 5.82969 6.5 5ZM11 8H17C17.8297 8 18.5 8.67031 18.5 9.5C18.5 10.3297 17.8297 11 17 11H11C10.1703 11 9.5 10.3297 9.5 9.5C9.5 8.67031 10.1703 8 11 8ZM18.5 12.5H21.5C22.3297 12.5 23 13.1703 23 14C23 14.8297 22.3297 15.5 21.5 15.5H18.5C17.6703 15.5 17 14.8297 17 14C17 13.1703 17.6703 12.5 18.5 12.5Z" fill="white"/>
</svg>
