<svg width="24" height="22" viewBox="0 0 24 22" fill="none" xmlns="http://www.w3.org/2000/svg">
<g clip-path="url(#clip0_2104_17667)">
<path d="M0 2.42858C0 1.48037 0.766071 0.714294 1.71429 0.714294H22.2857C23.2339 0.714294 24 1.48037 24 2.42858C24 3.37679 23.2339 4.14287 22.2857 4.14287H1.71429C0.766071 4.14287 0 3.37679 0 2.42858ZM0 11C0 10.0518 0.766071 9.28572 1.71429 9.28572H22.2857C23.2339 9.28572 24 10.0518 24 11C24 11.9482 23.2339 12.7143 22.2857 12.7143H1.71429C0.766071 12.7143 0 11.9482 0 11ZM24 19.5714C24 20.5197 23.2339 21.2857 22.2857 21.2857H1.71429C0.766071 21.2857 0 20.5197 0 19.5714C0 18.6232 0.766071 17.8572 1.71429 17.8572H22.2857C23.2339 17.8572 24 18.6232 24 19.5714Z" fill="white"/>
</g>
<defs>
<clipPath id="clip0_2104_17667">
<rect width="24" height="20.5714" fill="white" transform="translate(0 0.714294)"/>
</clipPath>
</defs>
</svg>
