<svg width="18" height="24" viewBox="0 0 18 24" fill="none" xmlns="http://www.w3.org/2000/svg">
<path d="M16.0594 7.05935C16.6453 6.47341 16.6453 5.52185 16.0594 4.93591C15.4734 4.34998 14.5219 4.34998 13.9359 4.93591L9.00001 9.87654L4.05938 4.9406C3.47344 4.35466 2.52188 4.35466 1.93594 4.9406C1.35001 5.52654 1.35001 6.4781 1.93594 7.06404L6.87657 12L1.94063 16.9406C1.35469 17.5265 1.35469 18.4781 1.94063 19.064C2.52657 19.65 3.47813 19.65 4.06407 19.064L9.00001 14.1234L13.9406 19.0594C14.5266 19.6453 15.4781 19.6453 16.0641 19.0594C16.65 18.4734 16.65 17.5219 16.0641 16.9359L11.1234 12L16.0594 7.05935Z" fill="white"/>
</svg>
