<svg width="22" height="22" viewBox="0 0 22 22" fill="none" xmlns="http://www.w3.org/2000/svg">
<path d="M19.375 3.5C19.375 3.0875 19.0375 2.75 18.625 2.75H3.625C3.2125 2.75 2.875 3.0875 2.875 3.5V18.5C2.875 18.9125 3.2125 19.25 3.625 19.25H18.625C19.0375 19.25 19.375 18.9125 19.375 18.5V3.5ZM18.625 0.5C20.2797 0.5 21.625 1.84531 21.625 3.5V18.5C21.625 20.1547 20.2797 21.5 18.625 21.5H3.625C1.97031 21.5 0.625 20.1547 0.625 18.5V3.5C0.625 1.84531 1.97031 0.5 3.625 0.5H18.625ZM15.625 11C15.625 11.3141 15.4937 11.6094 15.2641 11.825L10.0141 16.7C9.68594 17.0047 9.20781 17.0844 8.8 16.9062C8.39219 16.7281 8.125 16.3203 8.125 15.875V6.125C8.125 5.67969 8.39219 5.27187 8.8 5.09375C9.20781 4.91563 9.68594 4.99531 10.0141 5.3L15.2641 10.175C15.4937 10.3859 15.625 10.6859 15.625 11Z" fill="white"/>
</svg>
