<svg width="25" height="24" viewBox="0 0 25 24" fill="none" xmlns="http://www.w3.org/2000/svg">
<path d="M6.875 0C5.22031 0 3.875 1.34531 3.875 3V7.5H6.875V3H17.5016L18.875 4.37344V7.5H21.875V4.37344C21.875 3.57656 21.5609 2.8125 20.9984 2.25L19.625 0.876563C19.0625 0.314063 18.2984 0 17.5016 0H6.875ZM18.875 16.5V18V21H6.875V18V17.25V16.5H18.875ZM21.875 18H23.375C24.2047 18 24.875 17.3297 24.875 16.5V12C24.875 10.3453 23.5297 9 21.875 9H3.875C2.22031 9 0.875 10.3453 0.875 12V16.5C0.875 17.3297 1.54531 18 2.375 18H3.875V21C3.875 22.6547 5.22031 24 6.875 24H18.875C20.5297 24 21.875 22.6547 21.875 21V18ZM21.125 11.625C21.4234 11.625 21.7095 11.7435 21.9205 11.9545C22.1315 12.1655 22.25 12.4516 22.25 12.75C22.25 13.0484 22.1315 13.3345 21.9205 13.5455C21.7095 13.7565 21.4234 13.875 21.125 13.875C20.8266 13.875 20.5405 13.7565 20.3295 13.5455C20.1185 13.3345 20 13.0484 20 12.75C20 12.4516 20.1185 12.1655 20.3295 11.9545C20.5405 11.7435 20.8266 11.625 21.125 11.625Z" fill="white"/>
</svg>
