<svg width="22" height="22" viewBox="0 0 22 22" fill="none" xmlns="http://www.w3.org/2000/svg">
<path d="M3 18.5C3 18.9125 3.3375 19.25 3.75 19.25H18.75C19.1625 19.25 19.5 18.9125 19.5 18.5V3.5C19.5 3.0875 19.1625 2.75 18.75 2.75H3.75C3.3375 2.75 3 3.0875 3 3.5V18.5ZM3.75 21.5C2.09531 21.5 0.75 20.1547 0.75 18.5V3.5C0.75 1.84531 2.09531 0.5 3.75 0.5H18.75C20.4047 0.5 21.75 1.84531 21.75 3.5V18.5C21.75 20.1547 20.4047 21.5 18.75 21.5H3.75ZM6.75 11C6.75 10.6859 6.88125 10.3906 7.11094 10.175L12.3609 5.3C12.6891 4.99531 13.1672 4.91563 13.575 5.09375C13.9828 5.27187 14.25 5.67969 14.25 6.125V15.875C14.25 16.3203 13.9828 16.7281 13.575 16.9062C13.1672 17.0844 12.6891 17.0047 12.3609 16.7L7.11094 11.825C6.88125 11.6141 6.75 11.3141 6.75 11Z" fill="white"/>
</svg>
