<svg width="12" height="14" viewBox="0 0 12 14" fill="none" xmlns="http://www.w3.org/2000/svg">
<path d="M4.28125 3.7926V5.01135H8.34375V3.7926C8.34375 2.67034 7.43477 1.76135 6.3125 1.76135C5.19023 1.76135 4.28125 2.67034 4.28125 3.7926ZM2.65625 5.01135V3.7926C2.65625 1.77405 4.29395 0.136353 6.3125 0.136353C8.33105 0.136353 9.96875 1.77405 9.96875 3.7926V5.01135H10.375C11.2713 5.01135 12 5.74006 12 6.63635V11.5114C12 12.4076 11.2713 13.1364 10.375 13.1364H2.25C1.35371 13.1364 0.625 12.4076 0.625 11.5114V6.63635C0.625 5.74006 1.35371 5.01135 2.25 5.01135H2.65625Z" fill="#C54E34"/>
</svg>
