<svg width="28" height="28" viewBox="0 0 28 28" fill="none" xmlns="http://www.w3.org/2000/svg">
<rect x="28" y="28" width="28" height="28" rx="14" transform="rotate(-180 28 28)" fill="white"/>
<rect x="27.5" y="27.5" width="27" height="27" rx="13.5" transform="rotate(-180 27.5 27.5)" stroke="black" stroke-opacity="0.2"/>
<path d="M13.2434 21.7598C13.6619 22.248 14.3416 22.248 14.7601 21.7598L20.1173 15.5098C20.5358 15.0215 20.5358 14.2285 20.1173 13.7402C19.6987 13.252 19.019 13.252 18.6005 13.7402L14.0001 19.1074L9.39962 13.7441C8.9811 13.2559 8.30141 13.2559 7.88288 13.7441C7.46435 14.2324 7.46435 15.0254 7.88288 15.5137L13.24 21.7637L13.2434 21.7598ZM7.88623 8.00976L13.2434 14.2598C13.6619 14.748 14.3416 14.748 14.7601 14.2598L20.1173 8.00977C20.5358 7.52148 20.5358 6.72851 20.1173 6.24023C19.6987 5.75195 19.019 5.75195 18.6005 6.24023L14.0001 11.6074L9.39962 6.24414C8.9811 5.75586 8.30141 5.75586 7.88288 6.24414C7.46435 6.73242 7.46435 7.52539 7.88288 8.01367L7.88623 8.00976Z" fill="black" fill-opacity="0.5"/>
</svg>
