<svg width="2000" height="39" viewBox="0 0 2000 39" fill="none" xmlns="http://www.w3.org/2000/svg">
<rect width="2000" height="39" fill="white"/>
<mask id="path-1-inside-1_2162_30452" fill="white">
<path d="M0 0H29.4118V39H0V0Z"/>
</mask>
<path d="M29.9118 39V38.025H28.9118V39H29.9118ZM29.9118 36.075V34.125H28.9118V36.075H29.9118ZM29.9118 32.175V30.225H28.9118V32.175H29.9118ZM29.9118 28.275V26.325H28.9118V28.275H29.9118ZM29.9118 24.375V22.425H28.9118V24.375H29.9118ZM29.9118 20.475V18.525H28.9118V20.475H29.9118ZM29.9118 16.575V14.625H28.9118V16.575H29.9118ZM29.9118 12.675V10.725H28.9118V12.675H29.9118ZM29.9118 8.775V6.825H28.9118V8.775H29.9118ZM29.9118 4.875V2.92499H28.9118V4.875H29.9118ZM29.9118 0.974994V0H28.9118V0.974994H29.9118ZM30.4118 39V38.025H28.4118V39H30.4118ZM30.4118 36.075V34.125H28.4118V36.075H30.4118ZM30.4118 32.175V30.225H28.4118V32.175H30.4118ZM30.4118 28.275V26.325H28.4118V28.275H30.4118ZM30.4118 24.375V22.425H28.4118V24.375H30.4118ZM30.4118 20.475V18.525H28.4118V20.475H30.4118ZM30.4118 16.575V14.625H28.4118V16.575H30.4118ZM30.4118 12.675V10.725H28.4118V12.675H30.4118ZM30.4118 8.775V6.825H28.4118V8.775H30.4118ZM30.4118 4.875V2.92499H28.4118V4.875H30.4118ZM30.4118 0.974994V0H28.4118V0.974994H30.4118Z" fill="#BCCBC9" mask="url(#path-1-inside-1_2162_30452)"/>
<mask id="path-3-inside-2_2162_30452" fill="white">
<path d="M29.4117 0H58.8235V39H29.4117V0Z"/>
</mask>
<path d="M57.8235 0V39H59.8235V0H57.8235Z" fill="#BCCBC9" fill-opacity="0.5" mask="url(#path-3-inside-2_2162_30452)"/>
<mask id="path-5-inside-3_2162_30452" fill="white">
<path d="M58.8235 0H88.2353V39H58.8235V0Z"/>
</mask>
<path d="M88.7353 39V38.025H87.7353V39H88.7353ZM88.7353 36.075V34.125H87.7353V36.075H88.7353ZM88.7353 32.175V30.225H87.7353V32.175H88.7353ZM88.7353 28.275V26.325H87.7353V28.275H88.7353ZM88.7353 24.375V22.425H87.7353V24.375H88.7353ZM88.7353 20.475V18.525H87.7353V20.475H88.7353ZM88.7353 16.575V14.625H87.7353V16.575H88.7353ZM88.7353 12.675V10.725H87.7353V12.675H88.7353ZM88.7353 8.775V6.825H87.7353V8.775H88.7353ZM88.7353 4.875V2.92499H87.7353V4.875H88.7353ZM88.7353 0.974994V0H87.7353V0.974994H88.7353ZM89.2353 39V38.025H87.2353V39H89.2353ZM89.2353 36.075V34.125H87.2353V36.075H89.2353ZM89.2353 32.175V30.225H87.2353V32.175H89.2353ZM89.2353 28.275V26.325H87.2353V28.275H89.2353ZM89.2353 24.375V22.425H87.2353V24.375H89.2353ZM89.2353 20.475V18.525H87.2353V20.475H89.2353ZM89.2353 16.575V14.625H87.2353V16.575H89.2353ZM89.2353 12.675V10.725H87.2353V12.675H89.2353ZM89.2353 8.775V6.825H87.2353V8.775H89.2353ZM89.2353 4.875V2.92499H87.2353V4.875H89.2353ZM89.2353 0.974994V0H87.2353V0.974994H89.2353Z" fill="#BCCBC9" mask="url(#path-5-inside-3_2162_30452)"/>
<mask id="path-7-inside-4_2162_30452" fill="white">
<path d="M88.2353 0H117.647V39H88.2353V0Z"/>
</mask>
<path d="M116.647 0V39H118.647V0H116.647Z" fill="#BCCBC9" mask="url(#path-7-inside-4_2162_30452)"/>
<mask id="path-9-inside-5_2162_30452" fill="white">
<path d="M117.647 0H147.059V39H117.647V0Z"/>
</mask>
<path d="M147.559 39V38.025H146.559V39H147.559ZM147.559 36.075V34.125H146.559V36.075H147.559ZM147.559 32.175V30.225H146.559V32.175H147.559ZM147.559 28.275V26.325H146.559V28.275H147.559ZM147.559 24.375V22.425H146.559V24.375H147.559ZM147.559 20.475V18.525H146.559V20.475H147.559ZM147.559 16.575V14.625H146.559V16.575H147.559ZM147.559 12.675V10.725H146.559V12.675H147.559ZM147.559 8.775V6.825H146.559V8.775H147.559ZM147.559 4.875V2.92499H146.559V4.875H147.559ZM147.559 0.974994V0H146.559V0.974994H147.559ZM148.059 39V38.025H146.059V39H148.059ZM148.059 36.075V34.125H146.059V36.075H148.059ZM148.059 32.175V30.225H146.059V32.175H148.059ZM148.059 28.275V26.325H146.059V28.275H148.059ZM148.059 24.375V22.425H146.059V24.375H148.059ZM148.059 20.475V18.525H146.059V20.475H148.059ZM148.059 16.575V14.625H146.059V16.575H148.059ZM148.059 12.675V10.725H146.059V12.675H148.059ZM148.059 8.775V6.825H146.059V8.775H148.059ZM148.059 4.875V2.92499H146.059V4.875H148.059ZM148.059 0.974994V0H146.059V0.974994H148.059Z" fill="#BCCBC9" mask="url(#path-9-inside-5_2162_30452)"/>
<mask id="path-11-inside-6_2162_30452" fill="white">
<path d="M147.059 0H176.471V39H147.059V0Z"/>
</mask>
<path d="M175.471 0V39H177.471V0H175.471Z" fill="#BCCBC9" fill-opacity="0.5" mask="url(#path-11-inside-6_2162_30452)"/>
<mask id="path-13-inside-7_2162_30452" fill="white">
<path d="M176.471 0H205.882V39H176.471V0Z"/>
</mask>
<path d="M206.382 39V38.025H205.382V39H206.382ZM206.382 36.075V34.125H205.382V36.075H206.382ZM206.382 32.175V30.225H205.382V32.175H206.382ZM206.382 28.275V26.325H205.382V28.275H206.382ZM206.382 24.375V22.425H205.382V24.375H206.382ZM206.382 20.475V18.525H205.382V20.475H206.382ZM206.382 16.575V14.625H205.382V16.575H206.382ZM206.382 12.675V10.725H205.382V12.675H206.382ZM206.382 8.775V6.825H205.382V8.775H206.382ZM206.382 4.875V2.92499H205.382V4.875H206.382ZM206.382 0.974994V0H205.382V0.974994H206.382ZM206.882 39V38.025H204.882V39H206.882ZM206.882 36.075V34.125H204.882V36.075H206.882ZM206.882 32.175V30.225H204.882V32.175H206.882ZM206.882 28.275V26.325H204.882V28.275H206.882ZM206.882 24.375V22.425H204.882V24.375H206.882ZM206.882 20.475V18.525H204.882V20.475H206.882ZM206.882 16.575V14.625H204.882V16.575H206.882ZM206.882 12.675V10.725H204.882V12.675H206.882ZM206.882 8.775V6.825H204.882V8.775H206.882ZM206.882 4.875V2.92499H204.882V4.875H206.882ZM206.882 0.974994V0H204.882V0.974994H206.882Z" fill="#BCCBC9" mask="url(#path-13-inside-7_2162_30452)"/>
<mask id="path-15-inside-8_2162_30452" fill="white">
<path d="M205.882 0H235.294V39H205.882V0Z"/>
</mask>
<path d="M234.294 0V39H236.294V0H234.294Z" fill="#BCCBC9" mask="url(#path-15-inside-8_2162_30452)"/>
<mask id="path-17-inside-9_2162_30452" fill="white">
<path d="M235.294 0H264.706V39H235.294V0Z"/>
</mask>
<path d="M265.206 39V38.025H264.206V39H265.206ZM265.206 36.075V34.125H264.206V36.075H265.206ZM265.206 32.175V30.225H264.206V32.175H265.206ZM265.206 28.275V26.325H264.206V28.275H265.206ZM265.206 24.375V22.425H264.206V24.375H265.206ZM265.206 20.475V18.525H264.206V20.475H265.206ZM265.206 16.575V14.625H264.206V16.575H265.206ZM265.206 12.675V10.725H264.206V12.675H265.206ZM265.206 8.775V6.825H264.206V8.775H265.206ZM265.206 4.875V2.92499H264.206V4.875H265.206ZM265.206 0.974994V0H264.206V0.974994H265.206ZM265.706 39V38.025H263.706V39H265.706ZM265.706 36.075V34.125H263.706V36.075H265.706ZM265.706 32.175V30.225H263.706V32.175H265.706ZM265.706 28.275V26.325H263.706V28.275H265.706ZM265.706 24.375V22.425H263.706V24.375H265.706ZM265.706 20.475V18.525H263.706V20.475H265.706ZM265.706 16.575V14.625H263.706V16.575H265.706ZM265.706 12.675V10.725H263.706V12.675H265.706ZM265.706 8.775V6.825H263.706V8.775H265.706ZM265.706 4.875V2.92499H263.706V4.875H265.706ZM265.706 0.974994V0H263.706V0.974994H265.706Z" fill="#BCCBC9" mask="url(#path-17-inside-9_2162_30452)"/>
<mask id="path-19-inside-10_2162_30452" fill="white">
<path d="M264.706 0H294.118V39H264.706V0Z"/>
</mask>
<path d="M293.118 0V39H295.118V0H293.118Z" fill="#BCCBC9" fill-opacity="0.5" mask="url(#path-19-inside-10_2162_30452)"/>
<mask id="path-21-inside-11_2162_30452" fill="white">
<path d="M294.118 0H323.529V39H294.118V0Z"/>
</mask>
<path d="M324.029 39V38.025H323.029V39H324.029ZM324.029 36.075V34.125H323.029V36.075H324.029ZM324.029 32.175V30.225H323.029V32.175H324.029ZM324.029 28.275V26.325H323.029V28.275H324.029ZM324.029 24.375V22.425H323.029V24.375H324.029ZM324.029 20.475V18.525H323.029V20.475H324.029ZM324.029 16.575V14.625H323.029V16.575H324.029ZM324.029 12.675V10.725H323.029V12.675H324.029ZM324.029 8.775V6.825H323.029V8.775H324.029ZM324.029 4.875V2.92499H323.029V4.875H324.029ZM324.029 0.974994V0H323.029V0.974994H324.029ZM324.529 39V38.025H322.529V39H324.529ZM324.529 36.075V34.125H322.529V36.075H324.529ZM324.529 32.175V30.225H322.529V32.175H324.529ZM324.529 28.275V26.325H322.529V28.275H324.529ZM324.529 24.375V22.425H322.529V24.375H324.529ZM324.529 20.475V18.525H322.529V20.475H324.529ZM324.529 16.575V14.625H322.529V16.575H324.529ZM324.529 12.675V10.725H322.529V12.675H324.529ZM324.529 8.775V6.825H322.529V8.775H324.529ZM324.529 4.875V2.92499H322.529V4.875H324.529ZM324.529 0.974994V0H322.529V0.974994H324.529Z" fill="#BCCBC9" mask="url(#path-21-inside-11_2162_30452)"/>
<mask id="path-23-inside-12_2162_30452" fill="white">
<path d="M323.529 0H352.941V39H323.529V0Z"/>
</mask>
<path d="M351.941 0V39H353.941V0H351.941Z" fill="#BCCBC9" mask="url(#path-23-inside-12_2162_30452)"/>
<mask id="path-25-inside-13_2162_30452" fill="white">
<path d="M352.941 0H382.353V39H352.941V0Z"/>
</mask>
<path d="M382.853 39V38.025H381.853V39H382.853ZM382.853 36.075V34.125H381.853V36.075H382.853ZM382.853 32.175V30.225H381.853V32.175H382.853ZM382.853 28.275V26.325H381.853V28.275H382.853ZM382.853 24.375V22.425H381.853V24.375H382.853ZM382.853 20.475V18.525H381.853V20.475H382.853ZM382.853 16.575V14.625H381.853V16.575H382.853ZM382.853 12.675V10.725H381.853V12.675H382.853ZM382.853 8.775V6.825H381.853V8.775H382.853ZM382.853 4.875V2.92499H381.853V4.875H382.853ZM382.853 0.974994V0H381.853V0.974994H382.853ZM383.353 39V38.025H381.353V39H383.353ZM383.353 36.075V34.125H381.353V36.075H383.353ZM383.353 32.175V30.225H381.353V32.175H383.353ZM383.353 28.275V26.325H381.353V28.275H383.353ZM383.353 24.375V22.425H381.353V24.375H383.353ZM383.353 20.475V18.525H381.353V20.475H383.353ZM383.353 16.575V14.625H381.353V16.575H383.353ZM383.353 12.675V10.725H381.353V12.675H383.353ZM383.353 8.775V6.825H381.353V8.775H383.353ZM383.353 4.875V2.92499H381.353V4.875H383.353ZM383.353 0.974994V0H381.353V0.974994H383.353Z" fill="#BCCBC9" mask="url(#path-25-inside-13_2162_30452)"/>
<mask id="path-27-inside-14_2162_30452" fill="white">
<path d="M382.353 0H411.765V39H382.353V0Z"/>
</mask>
<path d="M410.765 0V39H412.765V0H410.765Z" fill="#BCCBC9" fill-opacity="0.5" mask="url(#path-27-inside-14_2162_30452)"/>
<mask id="path-29-inside-15_2162_30452" fill="white">
<path d="M411.765 0H441.176V39H411.765V0Z"/>
</mask>
<path d="M441.676 39V38.025H440.676V39H441.676ZM441.676 36.075V34.125H440.676V36.075H441.676ZM441.676 32.175V30.225H440.676V32.175H441.676ZM441.676 28.275V26.325H440.676V28.275H441.676ZM441.676 24.375V22.425H440.676V24.375H441.676ZM441.676 20.475V18.525H440.676V20.475H441.676ZM441.676 16.575V14.625H440.676V16.575H441.676ZM441.676 12.675V10.725H440.676V12.675H441.676ZM441.676 8.775V6.825H440.676V8.775H441.676ZM441.676 4.875V2.92499H440.676V4.875H441.676ZM441.676 0.974994V0H440.676V0.974994H441.676ZM442.176 39V38.025H440.176V39H442.176ZM442.176 36.075V34.125H440.176V36.075H442.176ZM442.176 32.175V30.225H440.176V32.175H442.176ZM442.176 28.275V26.325H440.176V28.275H442.176ZM442.176 24.375V22.425H440.176V24.375H442.176ZM442.176 20.475V18.525H440.176V20.475H442.176ZM442.176 16.575V14.625H440.176V16.575H442.176ZM442.176 12.675V10.725H440.176V12.675H442.176ZM442.176 8.775V6.825H440.176V8.775H442.176ZM442.176 4.875V2.92499H440.176V4.875H442.176ZM442.176 0.974994V0H440.176V0.974994H442.176Z" fill="#BCCBC9" mask="url(#path-29-inside-15_2162_30452)"/>
<mask id="path-31-inside-16_2162_30452" fill="white">
<path d="M441.177 0H470.588V39H441.177V0Z"/>
</mask>
<path d="M469.588 0V39H471.588V0H469.588Z" fill="#BCCBC9" mask="url(#path-31-inside-16_2162_30452)"/>
<mask id="path-33-inside-17_2162_30452" fill="white">
<path d="M470.588 0H500V39H470.588V0Z"/>
</mask>
<path d="M500.5 39V38.025H499.5V39H500.5ZM500.5 36.075V34.125H499.5V36.075H500.5ZM500.5 32.175V30.225H499.5V32.175H500.5ZM500.5 28.275V26.325H499.5V28.275H500.5ZM500.5 24.375V22.425H499.5V24.375H500.5ZM500.5 20.475V18.525H499.5V20.475H500.5ZM500.5 16.575V14.625H499.5V16.575H500.5ZM500.5 12.675V10.725H499.5V12.675H500.5ZM500.5 8.775V6.825H499.5V8.775H500.5ZM500.5 4.875V2.92499H499.5V4.875H500.5ZM500.5 0.974994V0H499.5V0.974994H500.5ZM501 39V38.025H499V39H501ZM501 36.075V34.125H499V36.075H501ZM501 32.175V30.225H499V32.175H501ZM501 28.275V26.325H499V28.275H501ZM501 24.375V22.425H499V24.375H501ZM501 20.475V18.525H499V20.475H501ZM501 16.575V14.625H499V16.575H501ZM501 12.675V10.725H499V12.675H501ZM501 8.775V6.825H499V8.775H501ZM501 4.875V2.92499H499V4.875H501ZM501 0.974994V0H499V0.974994H501Z" fill="#BCCBC9" mask="url(#path-33-inside-17_2162_30452)"/>
<mask id="path-35-inside-18_2162_30452" fill="white">
<path d="M500 0H529.412V39H500V0Z"/>
</mask>
<path d="M528.412 0V39H530.412V0H528.412Z" fill="#BCCBC9" fill-opacity="0.5" mask="url(#path-35-inside-18_2162_30452)"/>
<mask id="path-37-inside-19_2162_30452" fill="white">
<path d="M529.412 0H558.823V39H529.412V0Z"/>
</mask>
<path d="M559.323 39V38.025H558.323V39H559.323ZM559.323 36.075V34.125H558.323V36.075H559.323ZM559.323 32.175V30.225H558.323V32.175H559.323ZM559.323 28.275V26.325H558.323V28.275H559.323ZM559.323 24.375V22.425H558.323V24.375H559.323ZM559.323 20.475V18.525H558.323V20.475H559.323ZM559.323 16.575V14.625H558.323V16.575H559.323ZM559.323 12.675V10.725H558.323V12.675H559.323ZM559.323 8.775V6.825H558.323V8.775H559.323ZM559.323 4.875V2.92499H558.323V4.875H559.323ZM559.323 0.974994V0H558.323V0.974994H559.323ZM559.823 39V38.025H557.823V39H559.823ZM559.823 36.075V34.125H557.823V36.075H559.823ZM559.823 32.175V30.225H557.823V32.175H559.823ZM559.823 28.275V26.325H557.823V28.275H559.823ZM559.823 24.375V22.425H557.823V24.375H559.823ZM559.823 20.475V18.525H557.823V20.475H559.823ZM559.823 16.575V14.625H557.823V16.575H559.823ZM559.823 12.675V10.725H557.823V12.675H559.823ZM559.823 8.775V6.825H557.823V8.775H559.823ZM559.823 4.875V2.92499H557.823V4.875H559.823ZM559.823 0.974994V0H557.823V0.974994H559.823Z" fill="#BCCBC9" mask="url(#path-37-inside-19_2162_30452)"/>
<mask id="path-39-inside-20_2162_30452" fill="white">
<path d="M558.823 0H588.235V39H558.823V0Z"/>
</mask>
<path d="M587.235 0V39H589.235V0H587.235Z" fill="#BCCBC9" mask="url(#path-39-inside-20_2162_30452)"/>
<mask id="path-41-inside-21_2162_30452" fill="white">
<path d="M588.235 0H617.647V39H588.235V0Z"/>
</mask>
<path d="M618.147 39V38.025H617.147V39H618.147ZM618.147 36.075V34.125H617.147V36.075H618.147ZM618.147 32.175V30.225H617.147V32.175H618.147ZM618.147 28.275V26.325H617.147V28.275H618.147ZM618.147 24.375V22.425H617.147V24.375H618.147ZM618.147 20.475V18.525H617.147V20.475H618.147ZM618.147 16.575V14.625H617.147V16.575H618.147ZM618.147 12.675V10.725H617.147V12.675H618.147ZM618.147 8.775V6.825H617.147V8.775H618.147ZM618.147 4.875V2.92499H617.147V4.875H618.147ZM618.147 0.974994V0H617.147V0.974994H618.147ZM618.647 39V38.025H616.647V39H618.647ZM618.647 36.075V34.125H616.647V36.075H618.647ZM618.647 32.175V30.225H616.647V32.175H618.647ZM618.647 28.275V26.325H616.647V28.275H618.647ZM618.647 24.375V22.425H616.647V24.375H618.647ZM618.647 20.475V18.525H616.647V20.475H618.647ZM618.647 16.575V14.625H616.647V16.575H618.647ZM618.647 12.675V10.725H616.647V12.675H618.647ZM618.647 8.775V6.825H616.647V8.775H618.647ZM618.647 4.875V2.92499H616.647V4.875H618.647ZM618.647 0.974994V0H616.647V0.974994H618.647Z" fill="#BCCBC9" mask="url(#path-41-inside-21_2162_30452)"/>
<mask id="path-43-inside-22_2162_30452" fill="white">
<path d="M617.647 0H647.059V39H617.647V0Z"/>
</mask>
<path d="M646.059 0V39H648.059V0H646.059Z" fill="#BCCBC9" fill-opacity="0.5" mask="url(#path-43-inside-22_2162_30452)"/>
<mask id="path-45-inside-23_2162_30452" fill="white">
<path d="M647.059 0H676.47V39H647.059V0Z"/>
</mask>
<path d="M676.97 39V38.025H675.97V39H676.97ZM676.97 36.075V34.125H675.97V36.075H676.97ZM676.97 32.175V30.225H675.97V32.175H676.97ZM676.97 28.275V26.325H675.97V28.275H676.97ZM676.97 24.375V22.425H675.97V24.375H676.97ZM676.97 20.475V18.525H675.97V20.475H676.97ZM676.97 16.575V14.625H675.97V16.575H676.97ZM676.97 12.675V10.725H675.97V12.675H676.97ZM676.97 8.775V6.825H675.97V8.775H676.97ZM676.97 4.875V2.92499H675.97V4.875H676.97ZM676.97 0.974994V0H675.97V0.974994H676.97ZM677.47 39V38.025H675.47V39H677.47ZM677.47 36.075V34.125H675.47V36.075H677.47ZM677.47 32.175V30.225H675.47V32.175H677.47ZM677.47 28.275V26.325H675.47V28.275H677.47ZM677.47 24.375V22.425H675.47V24.375H677.47ZM677.47 20.475V18.525H675.47V20.475H677.47ZM677.47 16.575V14.625H675.47V16.575H677.47ZM677.47 12.675V10.725H675.47V12.675H677.47ZM677.47 8.775V6.825H675.47V8.775H677.47ZM677.47 4.875V2.92499H675.47V4.875H677.47ZM677.47 0.974994V0H675.47V0.974994H677.47Z" fill="#BCCBC9" mask="url(#path-45-inside-23_2162_30452)"/>
<mask id="path-47-inside-24_2162_30452" fill="white">
<path d="M676.47 0H705.882V39H676.47V0Z"/>
</mask>
<path d="M704.882 0V39H706.882V0H704.882Z" fill="#BCCBC9" mask="url(#path-47-inside-24_2162_30452)"/>
<mask id="path-49-inside-25_2162_30452" fill="white">
<path d="M705.882 0H735.294V39H705.882V0Z"/>
</mask>
<path d="M735.794 39V38.025H734.794V39H735.794ZM735.794 36.075V34.125H734.794V36.075H735.794ZM735.794 32.175V30.225H734.794V32.175H735.794ZM735.794 28.275V26.325H734.794V28.275H735.794ZM735.794 24.375V22.425H734.794V24.375H735.794ZM735.794 20.475V18.525H734.794V20.475H735.794ZM735.794 16.575V14.625H734.794V16.575H735.794ZM735.794 12.675V10.725H734.794V12.675H735.794ZM735.794 8.775V6.825H734.794V8.775H735.794ZM735.794 4.875V2.92499H734.794V4.875H735.794ZM735.794 0.974994V0H734.794V0.974994H735.794ZM736.294 39V38.025H734.294V39H736.294ZM736.294 36.075V34.125H734.294V36.075H736.294ZM736.294 32.175V30.225H734.294V32.175H736.294ZM736.294 28.275V26.325H734.294V28.275H736.294ZM736.294 24.375V22.425H734.294V24.375H736.294ZM736.294 20.475V18.525H734.294V20.475H736.294ZM736.294 16.575V14.625H734.294V16.575H736.294ZM736.294 12.675V10.725H734.294V12.675H736.294ZM736.294 8.775V6.825H734.294V8.775H736.294ZM736.294 4.875V2.92499H734.294V4.875H736.294ZM736.294 0.974994V0H734.294V0.974994H736.294Z" fill="#BCCBC9" mask="url(#path-49-inside-25_2162_30452)"/>
<mask id="path-51-inside-26_2162_30452" fill="white">
<path d="M735.294 0H764.706V39H735.294V0Z"/>
</mask>
<path d="M763.706 0V39H765.706V0H763.706Z" fill="#BCCBC9" fill-opacity="0.5" mask="url(#path-51-inside-26_2162_30452)"/>
<mask id="path-53-inside-27_2162_30452" fill="white">
<path d="M764.706 0H794.118V39H764.706V0Z"/>
</mask>
<path d="M794.618 39V38.025H793.618V39H794.618ZM794.618 36.075V34.125H793.618V36.075H794.618ZM794.618 32.175V30.225H793.618V32.175H794.618ZM794.618 28.275V26.325H793.618V28.275H794.618ZM794.618 24.375V22.425H793.618V24.375H794.618ZM794.618 20.475V18.525H793.618V20.475H794.618ZM794.618 16.575V14.625H793.618V16.575H794.618ZM794.618 12.675V10.725H793.618V12.675H794.618ZM794.618 8.775V6.825H793.618V8.775H794.618ZM794.618 4.875V2.92499H793.618V4.875H794.618ZM794.618 0.974994V0H793.618V0.974994H794.618ZM795.118 39V38.025H793.118V39H795.118ZM795.118 36.075V34.125H793.118V36.075H795.118ZM795.118 32.175V30.225H793.118V32.175H795.118ZM795.118 28.275V26.325H793.118V28.275H795.118ZM795.118 24.375V22.425H793.118V24.375H795.118ZM795.118 20.475V18.525H793.118V20.475H795.118ZM795.118 16.575V14.625H793.118V16.575H795.118ZM795.118 12.675V10.725H793.118V12.675H795.118ZM795.118 8.775V6.825H793.118V8.775H795.118ZM795.118 4.875V2.92499H793.118V4.875H795.118ZM795.118 0.974994V0H793.118V0.974994H795.118Z" fill="#BCCBC9" mask="url(#path-53-inside-27_2162_30452)"/>
<mask id="path-55-inside-28_2162_30452" fill="white">
<path d="M794.118 0H823.529V39H794.118V0Z"/>
</mask>
<path d="M822.529 0V39H824.529V0H822.529Z" fill="#BCCBC9" mask="url(#path-55-inside-28_2162_30452)"/>
<mask id="path-57-inside-29_2162_30452" fill="white">
<path d="M823.529 0H852.941V39H823.529V0Z"/>
</mask>
<path d="M853.441 39V38.025H852.441V39H853.441ZM853.441 36.075V34.125H852.441V36.075H853.441ZM853.441 32.175V30.225H852.441V32.175H853.441ZM853.441 28.275V26.325H852.441V28.275H853.441ZM853.441 24.375V22.425H852.441V24.375H853.441ZM853.441 20.475V18.525H852.441V20.475H853.441ZM853.441 16.575V14.625H852.441V16.575H853.441ZM853.441 12.675V10.725H852.441V12.675H853.441ZM853.441 8.775V6.825H852.441V8.775H853.441ZM853.441 4.875V2.92499H852.441V4.875H853.441ZM853.441 0.974994V0H852.441V0.974994H853.441ZM853.941 39V38.025H851.941V39H853.941ZM853.941 36.075V34.125H851.941V36.075H853.941ZM853.941 32.175V30.225H851.941V32.175H853.941ZM853.941 28.275V26.325H851.941V28.275H853.941ZM853.941 24.375V22.425H851.941V24.375H853.941ZM853.941 20.475V18.525H851.941V20.475H853.941ZM853.941 16.575V14.625H851.941V16.575H853.941ZM853.941 12.675V10.725H851.941V12.675H853.941ZM853.941 8.775V6.825H851.941V8.775H853.941ZM853.941 4.875V2.92499H851.941V4.875H853.941ZM853.941 0.974994V0H851.941V0.974994H853.941Z" fill="#BCCBC9" mask="url(#path-57-inside-29_2162_30452)"/>
<mask id="path-59-inside-30_2162_30452" fill="white">
<path d="M852.941 0H882.353V39H852.941V0Z"/>
</mask>
<path d="M881.353 0V39H883.353V0H881.353Z" fill="#BCCBC9" fill-opacity="0.5" mask="url(#path-59-inside-30_2162_30452)"/>
<mask id="path-61-inside-31_2162_30452" fill="white">
<path d="M882.353 0H911.765V39H882.353V0Z"/>
</mask>
<path d="M912.265 39V38.025H911.265V39H912.265ZM912.265 36.075V34.125H911.265V36.075H912.265ZM912.265 32.175V30.225H911.265V32.175H912.265ZM912.265 28.275V26.325H911.265V28.275H912.265ZM912.265 24.375V22.425H911.265V24.375H912.265ZM912.265 20.475V18.525H911.265V20.475H912.265ZM912.265 16.575V14.625H911.265V16.575H912.265ZM912.265 12.675V10.725H911.265V12.675H912.265ZM912.265 8.775V6.825H911.265V8.775H912.265ZM912.265 4.875V2.92499H911.265V4.875H912.265ZM912.265 0.974994V0H911.265V0.974994H912.265ZM912.765 39V38.025H910.765V39H912.765ZM912.765 36.075V34.125H910.765V36.075H912.765ZM912.765 32.175V30.225H910.765V32.175H912.765ZM912.765 28.275V26.325H910.765V28.275H912.765ZM912.765 24.375V22.425H910.765V24.375H912.765ZM912.765 20.475V18.525H910.765V20.475H912.765ZM912.765 16.575V14.625H910.765V16.575H912.765ZM912.765 12.675V10.725H910.765V12.675H912.765ZM912.765 8.775V6.825H910.765V8.775H912.765ZM912.765 4.875V2.92499H910.765V4.875H912.765ZM912.765 0.974994V0H910.765V0.974994H912.765Z" fill="#BCCBC9" mask="url(#path-61-inside-31_2162_30452)"/>
<mask id="path-63-inside-32_2162_30452" fill="white">
<path d="M911.765 0H941.176V39H911.765V0Z"/>
</mask>
<path d="M940.176 0V39H942.176V0H940.176Z" fill="#BCCBC9" mask="url(#path-63-inside-32_2162_30452)"/>
<mask id="path-65-inside-33_2162_30452" fill="white">
<path d="M941.176 0H970.588V39H941.176V0Z"/>
</mask>
<path d="M971.088 39V38.025H970.088V39H971.088ZM971.088 36.075V34.125H970.088V36.075H971.088ZM971.088 32.175V30.225H970.088V32.175H971.088ZM971.088 28.275V26.325H970.088V28.275H971.088ZM971.088 24.375V22.425H970.088V24.375H971.088ZM971.088 20.475V18.525H970.088V20.475H971.088ZM971.088 16.575V14.625H970.088V16.575H971.088ZM971.088 12.675V10.725H970.088V12.675H971.088ZM971.088 8.775V6.825H970.088V8.775H971.088ZM971.088 4.875V2.92499H970.088V4.875H971.088ZM971.088 0.974994V0H970.088V0.974994H971.088ZM971.588 39V38.025H969.588V39H971.588ZM971.588 36.075V34.125H969.588V36.075H971.588ZM971.588 32.175V30.225H969.588V32.175H971.588ZM971.588 28.275V26.325H969.588V28.275H971.588ZM971.588 24.375V22.425H969.588V24.375H971.588ZM971.588 20.475V18.525H969.588V20.475H971.588ZM971.588 16.575V14.625H969.588V16.575H971.588ZM971.588 12.675V10.725H969.588V12.675H971.588ZM971.588 8.775V6.825H969.588V8.775H971.588ZM971.588 4.875V2.92499H969.588V4.875H971.588ZM971.588 0.974994V0H969.588V0.974994H971.588Z" fill="#BCCBC9" mask="url(#path-65-inside-33_2162_30452)"/>
<mask id="path-67-inside-34_2162_30452" fill="white">
<path d="M970.588 0H1000V39H970.588V0Z"/>
</mask>
<path d="M999 0V39H1001V0H999Z" fill="#BCCBC9" fill-opacity="0.5" mask="url(#path-67-inside-34_2162_30452)"/>
<mask id="path-69-inside-35_2162_30452" fill="white">
<path d="M1000 0H1029.41V39H1000V0Z"/>
</mask>
<path d="M1029.91 39V38.025H1028.91V39H1029.91ZM1029.91 36.075V34.125H1028.91V36.075H1029.91ZM1029.91 32.175V30.225H1028.91V32.175H1029.91ZM1029.91 28.275V26.325H1028.91V28.275H1029.91ZM1029.91 24.375V22.425H1028.91V24.375H1029.91ZM1029.91 20.475V18.525H1028.91V20.475H1029.91ZM1029.91 16.575V14.625H1028.91V16.575H1029.91ZM1029.91 12.675V10.725H1028.91V12.675H1029.91ZM1029.91 8.775V6.825H1028.91V8.775H1029.91ZM1029.91 4.875V2.92499H1028.91V4.875H1029.91ZM1029.91 0.974994V0H1028.91V0.974994H1029.91ZM1030.41 39V38.025H1028.41V39H1030.41ZM1030.41 36.075V34.125H1028.41V36.075H1030.41ZM1030.41 32.175V30.225H1028.41V32.175H1030.41ZM1030.41 28.275V26.325H1028.41V28.275H1030.41ZM1030.41 24.375V22.425H1028.41V24.375H1030.41ZM1030.41 20.475V18.525H1028.41V20.475H1030.41ZM1030.41 16.575V14.625H1028.41V16.575H1030.41ZM1030.41 12.675V10.725H1028.41V12.675H1030.41ZM1030.41 8.775V6.825H1028.41V8.775H1030.41ZM1030.41 4.875V2.92499H1028.41V4.875H1030.41ZM1030.41 0.974994V0H1028.41V0.974994H1030.41Z" fill="#BCCBC9" mask="url(#path-69-inside-35_2162_30452)"/>
<mask id="path-71-inside-36_2162_30452" fill="white">
<path d="M1029.41 0H1058.82V39H1029.41V0Z"/>
</mask>
<path d="M1057.82 0V39H1059.82V0H1057.82Z" fill="#BCCBC9" mask="url(#path-71-inside-36_2162_30452)"/>
<mask id="path-73-inside-37_2162_30452" fill="white">
<path d="M1058.82 0H1088.24V39H1058.82V0Z"/>
</mask>
<path d="M1088.74 39V38.025H1087.74V39H1088.74ZM1088.74 36.075V34.125H1087.74V36.075H1088.74ZM1088.74 32.175V30.225H1087.74V32.175H1088.74ZM1088.74 28.275V26.325H1087.74V28.275H1088.74ZM1088.74 24.375V22.425H1087.74V24.375H1088.74ZM1088.74 20.475V18.525H1087.74V20.475H1088.74ZM1088.74 16.575V14.625H1087.74V16.575H1088.74ZM1088.74 12.675V10.725H1087.74V12.675H1088.74ZM1088.74 8.775V6.825H1087.74V8.775H1088.74ZM1088.74 4.875V2.92499H1087.74V4.875H1088.74ZM1088.74 0.974994V0H1087.74V0.974994H1088.74ZM1089.24 39V38.025H1087.24V39H1089.24ZM1089.24 36.075V34.125H1087.24V36.075H1089.24ZM1089.24 32.175V30.225H1087.24V32.175H1089.24ZM1089.24 28.275V26.325H1087.24V28.275H1089.24ZM1089.24 24.375V22.425H1087.24V24.375H1089.24ZM1089.24 20.475V18.525H1087.24V20.475H1089.24ZM1089.24 16.575V14.625H1087.24V16.575H1089.24ZM1089.24 12.675V10.725H1087.24V12.675H1089.24ZM1089.24 8.775V6.825H1087.24V8.775H1089.24ZM1089.24 4.875V2.92499H1087.24V4.875H1089.24ZM1089.24 0.974994V0H1087.24V0.974994H1089.24Z" fill="#BCCBC9" mask="url(#path-73-inside-37_2162_30452)"/>
<mask id="path-75-inside-38_2162_30452" fill="white">
<path d="M1088.24 0H1117.65V39H1088.24V0Z"/>
</mask>
<path d="M1116.65 0V39H1118.65V0H1116.65Z" fill="#BCCBC9" fill-opacity="0.5" mask="url(#path-75-inside-38_2162_30452)"/>
<mask id="path-77-inside-39_2162_30452" fill="white">
<path d="M1117.65 0H1147.06V39H1117.65V0Z"/>
</mask>
<path d="M1147.56 39V38.025H1146.56V39H1147.56ZM1147.56 36.075V34.125H1146.56V36.075H1147.56ZM1147.56 32.175V30.225H1146.56V32.175H1147.56ZM1147.56 28.275V26.325H1146.56V28.275H1147.56ZM1147.56 24.375V22.425H1146.56V24.375H1147.56ZM1147.56 20.475V18.525H1146.56V20.475H1147.56ZM1147.56 16.575V14.625H1146.56V16.575H1147.56ZM1147.56 12.675V10.725H1146.56V12.675H1147.56ZM1147.56 8.775V6.825H1146.56V8.775H1147.56ZM1147.56 4.875V2.92499H1146.56V4.875H1147.56ZM1147.56 0.974994V0H1146.56V0.974994H1147.56ZM1148.06 39V38.025H1146.06V39H1148.06ZM1148.06 36.075V34.125H1146.06V36.075H1148.06ZM1148.06 32.175V30.225H1146.06V32.175H1148.06ZM1148.06 28.275V26.325H1146.06V28.275H1148.06ZM1148.06 24.375V22.425H1146.06V24.375H1148.06ZM1148.06 20.475V18.525H1146.06V20.475H1148.06ZM1148.06 16.575V14.625H1146.06V16.575H1148.06ZM1148.06 12.675V10.725H1146.06V12.675H1148.06ZM1148.06 8.775V6.825H1146.06V8.775H1148.06ZM1148.06 4.875V2.92499H1146.06V4.875H1148.06ZM1148.06 0.974994V0H1146.06V0.974994H1148.06Z" fill="#BCCBC9" mask="url(#path-77-inside-39_2162_30452)"/>
<mask id="path-79-inside-40_2162_30452" fill="white">
<path d="M1147.06 0H1176.47V39H1147.06V0Z"/>
</mask>
<path d="M1175.47 0V39H1177.47V0H1175.47Z" fill="#BCCBC9" mask="url(#path-79-inside-40_2162_30452)"/>
<mask id="path-81-inside-41_2162_30452" fill="white">
<path d="M1176.47 0H1205.88V39H1176.47V0Z"/>
</mask>
<path d="M1206.38 39V38.025H1205.38V39H1206.38ZM1206.38 36.075V34.125H1205.38V36.075H1206.38ZM1206.38 32.175V30.225H1205.38V32.175H1206.38ZM1206.38 28.275V26.325H1205.38V28.275H1206.38ZM1206.38 24.375V22.425H1205.38V24.375H1206.38ZM1206.38 20.475V18.525H1205.38V20.475H1206.38ZM1206.38 16.575V14.625H1205.38V16.575H1206.38ZM1206.38 12.675V10.725H1205.38V12.675H1206.38ZM1206.38 8.775V6.825H1205.38V8.775H1206.38ZM1206.38 4.875V2.92499H1205.38V4.875H1206.38ZM1206.38 0.974994V0H1205.38V0.974994H1206.38ZM1206.88 39V38.025H1204.88V39H1206.88ZM1206.88 36.075V34.125H1204.88V36.075H1206.88ZM1206.88 32.175V30.225H1204.88V32.175H1206.88ZM1206.88 28.275V26.325H1204.88V28.275H1206.88ZM1206.88 24.375V22.425H1204.88V24.375H1206.88ZM1206.88 20.475V18.525H1204.88V20.475H1206.88ZM1206.88 16.575V14.625H1204.88V16.575H1206.88ZM1206.88 12.675V10.725H1204.88V12.675H1206.88ZM1206.88 8.775V6.825H1204.88V8.775H1206.88ZM1206.88 4.875V2.92499H1204.88V4.875H1206.88ZM1206.88 0.974994V0H1204.88V0.974994H1206.88Z" fill="#BCCBC9" mask="url(#path-81-inside-41_2162_30452)"/>
<mask id="path-83-inside-42_2162_30452" fill="white">
<path d="M1205.88 0H1235.29V39H1205.88V0Z"/>
</mask>
<path d="M1234.29 0V39H1236.29V0H1234.29Z" fill="#BCCBC9" fill-opacity="0.5" mask="url(#path-83-inside-42_2162_30452)"/>
<mask id="path-85-inside-43_2162_30452" fill="white">
<path d="M1235.29 0H1264.71V39H1235.29V0Z"/>
</mask>
<path d="M1265.21 39V38.025H1264.21V39H1265.21ZM1265.21 36.075V34.125H1264.21V36.075H1265.21ZM1265.21 32.175V30.225H1264.21V32.175H1265.21ZM1265.21 28.275V26.325H1264.21V28.275H1265.21ZM1265.21 24.375V22.425H1264.21V24.375H1265.21ZM1265.21 20.475V18.525H1264.21V20.475H1265.21ZM1265.21 16.575V14.625H1264.21V16.575H1265.21ZM1265.21 12.675V10.725H1264.21V12.675H1265.21ZM1265.21 8.775V6.825H1264.21V8.775H1265.21ZM1265.21 4.875V2.92499H1264.21V4.875H1265.21ZM1265.21 0.974994V0H1264.21V0.974994H1265.21ZM1265.71 39V38.025H1263.71V39H1265.71ZM1265.71 36.075V34.125H1263.71V36.075H1265.71ZM1265.71 32.175V30.225H1263.71V32.175H1265.71ZM1265.71 28.275V26.325H1263.71V28.275H1265.71ZM1265.71 24.375V22.425H1263.71V24.375H1265.71ZM1265.71 20.475V18.525H1263.71V20.475H1265.71ZM1265.71 16.575V14.625H1263.71V16.575H1265.71ZM1265.71 12.675V10.725H1263.71V12.675H1265.71ZM1265.71 8.775V6.825H1263.71V8.775H1265.71ZM1265.71 4.875V2.92499H1263.71V4.875H1265.71ZM1265.71 0.974994V0H1263.71V0.974994H1265.71Z" fill="#BCCBC9" mask="url(#path-85-inside-43_2162_30452)"/>
<mask id="path-87-inside-44_2162_30452" fill="white">
<path d="M1264.71 0H1294.12V39H1264.71V0Z"/>
</mask>
<path d="M1293.12 0V39H1295.12V0H1293.12Z" fill="#BCCBC9" mask="url(#path-87-inside-44_2162_30452)"/>
<mask id="path-89-inside-45_2162_30452" fill="white">
<path d="M1294.12 0H1323.53V39H1294.12V0Z"/>
</mask>
<path d="M1324.03 39V38.025H1323.03V39H1324.03ZM1324.03 36.075V34.125H1323.03V36.075H1324.03ZM1324.03 32.175V30.225H1323.03V32.175H1324.03ZM1324.03 28.275V26.325H1323.03V28.275H1324.03ZM1324.03 24.375V22.425H1323.03V24.375H1324.03ZM1324.03 20.475V18.525H1323.03V20.475H1324.03ZM1324.03 16.575V14.625H1323.03V16.575H1324.03ZM1324.03 12.675V10.725H1323.03V12.675H1324.03ZM1324.03 8.775V6.825H1323.03V8.775H1324.03ZM1324.03 4.875V2.92499H1323.03V4.875H1324.03ZM1324.03 0.974994V0H1323.03V0.974994H1324.03ZM1324.53 39V38.025H1322.53V39H1324.53ZM1324.53 36.075V34.125H1322.53V36.075H1324.53ZM1324.53 32.175V30.225H1322.53V32.175H1324.53ZM1324.53 28.275V26.325H1322.53V28.275H1324.53ZM1324.53 24.375V22.425H1322.53V24.375H1324.53ZM1324.53 20.475V18.525H1322.53V20.475H1324.53ZM1324.53 16.575V14.625H1322.53V16.575H1324.53ZM1324.53 12.675V10.725H1322.53V12.675H1324.53ZM1324.53 8.775V6.825H1322.53V8.775H1324.53ZM1324.53 4.875V2.92499H1322.53V4.875H1324.53ZM1324.53 0.974994V0H1322.53V0.974994H1324.53Z" fill="#BCCBC9" mask="url(#path-89-inside-45_2162_30452)"/>
<mask id="path-91-inside-46_2162_30452" fill="white">
<path d="M1323.53 0H1352.94V39H1323.53V0Z"/>
</mask>
<path d="M1351.94 0V39H1353.94V0H1351.94Z" fill="#BCCBC9" fill-opacity="0.5" mask="url(#path-91-inside-46_2162_30452)"/>
<mask id="path-93-inside-47_2162_30452" fill="white">
<path d="M1352.94 0H1382.35V39H1352.94V0Z"/>
</mask>
<path d="M1382.85 39V38.025H1381.85V39H1382.85ZM1382.85 36.075V34.125H1381.85V36.075H1382.85ZM1382.85 32.175V30.225H1381.85V32.175H1382.85ZM1382.85 28.275V26.325H1381.85V28.275H1382.85ZM1382.85 24.375V22.425H1381.85V24.375H1382.85ZM1382.85 20.475V18.525H1381.85V20.475H1382.85ZM1382.85 16.575V14.625H1381.85V16.575H1382.85ZM1382.85 12.675V10.725H1381.85V12.675H1382.85ZM1382.85 8.775V6.825H1381.85V8.775H1382.85ZM1382.85 4.875V2.92499H1381.85V4.875H1382.85ZM1382.85 0.974994V0H1381.85V0.974994H1382.85ZM1383.35 39V38.025H1381.35V39H1383.35ZM1383.35 36.075V34.125H1381.35V36.075H1383.35ZM1383.35 32.175V30.225H1381.35V32.175H1383.35ZM1383.35 28.275V26.325H1381.35V28.275H1383.35ZM1383.35 24.375V22.425H1381.35V24.375H1383.35ZM1383.35 20.475V18.525H1381.35V20.475H1383.35ZM1383.35 16.575V14.625H1381.35V16.575H1383.35ZM1383.35 12.675V10.725H1381.35V12.675H1383.35ZM1383.35 8.775V6.825H1381.35V8.775H1383.35ZM1383.35 4.875V2.92499H1381.35V4.875H1383.35ZM1383.35 0.974994V0H1381.35V0.974994H1383.35Z" fill="#BCCBC9" mask="url(#path-93-inside-47_2162_30452)"/>
<mask id="path-95-inside-48_2162_30452" fill="white">
<path d="M1382.35 0H1411.76V39H1382.35V0Z"/>
</mask>
<path d="M1410.76 0V39H1412.76V0H1410.76Z" fill="#BCCBC9" mask="url(#path-95-inside-48_2162_30452)"/>
<mask id="path-97-inside-49_2162_30452" fill="white">
<path d="M1411.76 0H1441.18V39H1411.76V0Z"/>
</mask>
<path d="M1441.68 39V38.025H1440.68V39H1441.68ZM1441.68 36.075V34.125H1440.68V36.075H1441.68ZM1441.68 32.175V30.225H1440.68V32.175H1441.68ZM1441.68 28.275V26.325H1440.68V28.275H1441.68ZM1441.68 24.375V22.425H1440.68V24.375H1441.68ZM1441.68 20.475V18.525H1440.68V20.475H1441.68ZM1441.68 16.575V14.625H1440.68V16.575H1441.68ZM1441.68 12.675V10.725H1440.68V12.675H1441.68ZM1441.68 8.775V6.825H1440.68V8.775H1441.68ZM1441.68 4.875V2.92499H1440.68V4.875H1441.68ZM1441.68 0.974994V0H1440.68V0.974994H1441.68ZM1442.18 39V38.025H1440.18V39H1442.18ZM1442.18 36.075V34.125H1440.18V36.075H1442.18ZM1442.18 32.175V30.225H1440.18V32.175H1442.18ZM1442.18 28.275V26.325H1440.18V28.275H1442.18ZM1442.18 24.375V22.425H1440.18V24.375H1442.18ZM1442.18 20.475V18.525H1440.18V20.475H1442.18ZM1442.18 16.575V14.625H1440.18V16.575H1442.18ZM1442.18 12.675V10.725H1440.18V12.675H1442.18ZM1442.18 8.775V6.825H1440.18V8.775H1442.18ZM1442.18 4.875V2.92499H1440.18V4.875H1442.18ZM1442.18 0.974994V0H1440.18V0.974994H1442.18Z" fill="#BCCBC9" mask="url(#path-97-inside-49_2162_30452)"/>
<mask id="path-99-inside-50_2162_30452" fill="white">
<path d="M1441.18 0H1470.59V39H1441.18V0Z"/>
</mask>
<path d="M1469.59 0V39H1471.59V0H1469.59Z" fill="#BCCBC9" fill-opacity="0.5" mask="url(#path-99-inside-50_2162_30452)"/>
<mask id="path-101-inside-51_2162_30452" fill="white">
<path d="M1470.59 0H1500V39H1470.59V0Z"/>
</mask>
<path d="M1500.5 39V38.025H1499.5V39H1500.5ZM1500.5 36.075V34.125H1499.5V36.075H1500.5ZM1500.5 32.175V30.225H1499.5V32.175H1500.5ZM1500.5 28.275V26.325H1499.5V28.275H1500.5ZM1500.5 24.375V22.425H1499.5V24.375H1500.5ZM1500.5 20.475V18.525H1499.5V20.475H1500.5ZM1500.5 16.575V14.625H1499.5V16.575H1500.5ZM1500.5 12.675V10.725H1499.5V12.675H1500.5ZM1500.5 8.775V6.825H1499.5V8.775H1500.5ZM1500.5 4.875V2.92499H1499.5V4.875H1500.5ZM1500.5 0.974994V0H1499.5V0.974994H1500.5ZM1501 39V38.025H1499V39H1501ZM1501 36.075V34.125H1499V36.075H1501ZM1501 32.175V30.225H1499V32.175H1501ZM1501 28.275V26.325H1499V28.275H1501ZM1501 24.375V22.425H1499V24.375H1501ZM1501 20.475V18.525H1499V20.475H1501ZM1501 16.575V14.625H1499V16.575H1501ZM1501 12.675V10.725H1499V12.675H1501ZM1501 8.775V6.825H1499V8.775H1501ZM1501 4.875V2.92499H1499V4.875H1501ZM1501 0.974994V0H1499V0.974994H1501Z" fill="#BCCBC9" mask="url(#path-101-inside-51_2162_30452)"/>
<mask id="path-103-inside-52_2162_30452" fill="white">
<path d="M1500 0H1529.41V39H1500V0Z"/>
</mask>
<path d="M1528.41 0V39H1530.41V0H1528.41Z" fill="#BCCBC9" mask="url(#path-103-inside-52_2162_30452)"/>
<mask id="path-105-inside-53_2162_30452" fill="white">
<path d="M1529.41 0H1558.82V39H1529.41V0Z"/>
</mask>
<path d="M1559.32 39V38.025H1558.32V39H1559.32ZM1559.32 36.075V34.125H1558.32V36.075H1559.32ZM1559.32 32.175V30.225H1558.32V32.175H1559.32ZM1559.32 28.275V26.325H1558.32V28.275H1559.32ZM1559.32 24.375V22.425H1558.32V24.375H1559.32ZM1559.32 20.475V18.525H1558.32V20.475H1559.32ZM1559.32 16.575V14.625H1558.32V16.575H1559.32ZM1559.32 12.675V10.725H1558.32V12.675H1559.32ZM1559.32 8.775V6.825H1558.32V8.775H1559.32ZM1559.32 4.875V2.92499H1558.32V4.875H1559.32ZM1559.32 0.974994V0H1558.32V0.974994H1559.32ZM1559.82 39V38.025H1557.82V39H1559.82ZM1559.82 36.075V34.125H1557.82V36.075H1559.82ZM1559.82 32.175V30.225H1557.82V32.175H1559.82ZM1559.82 28.275V26.325H1557.82V28.275H1559.82ZM1559.82 24.375V22.425H1557.82V24.375H1559.82ZM1559.82 20.475V18.525H1557.82V20.475H1559.82ZM1559.82 16.575V14.625H1557.82V16.575H1559.82ZM1559.82 12.675V10.725H1557.82V12.675H1559.82ZM1559.82 8.775V6.825H1557.82V8.775H1559.82ZM1559.82 4.875V2.92499H1557.82V4.875H1559.82ZM1559.82 0.974994V0H1557.82V0.974994H1559.82Z" fill="#BCCBC9" mask="url(#path-105-inside-53_2162_30452)"/>
<mask id="path-107-inside-54_2162_30452" fill="white">
<path d="M1558.82 0H1588.23V39H1558.82V0Z"/>
</mask>
<path d="M1587.23 0V39H1589.23V0H1587.23Z" fill="#BCCBC9" fill-opacity="0.5" mask="url(#path-107-inside-54_2162_30452)"/>
<mask id="path-109-inside-55_2162_30452" fill="white">
<path d="M1588.23 0H1617.65V39H1588.23V0Z"/>
</mask>
<path d="M1618.15 39V38.025H1617.15V39H1618.15ZM1618.15 36.075V34.125H1617.15V36.075H1618.15ZM1618.15 32.175V30.225H1617.15V32.175H1618.15ZM1618.15 28.275V26.325H1617.15V28.275H1618.15ZM1618.15 24.375V22.425H1617.15V24.375H1618.15ZM1618.15 20.475V18.525H1617.15V20.475H1618.15ZM1618.15 16.575V14.625H1617.15V16.575H1618.15ZM1618.15 12.675V10.725H1617.15V12.675H1618.15ZM1618.15 8.775V6.825H1617.15V8.775H1618.15ZM1618.15 4.875V2.92499H1617.15V4.875H1618.15ZM1618.15 0.974994V0H1617.15V0.974994H1618.15ZM1618.65 39V38.025H1616.65V39H1618.65ZM1618.65 36.075V34.125H1616.65V36.075H1618.65ZM1618.65 32.175V30.225H1616.65V32.175H1618.65ZM1618.65 28.275V26.325H1616.65V28.275H1618.65ZM1618.65 24.375V22.425H1616.65V24.375H1618.65ZM1618.65 20.475V18.525H1616.65V20.475H1618.65ZM1618.65 16.575V14.625H1616.65V16.575H1618.65ZM1618.65 12.675V10.725H1616.65V12.675H1618.65ZM1618.65 8.775V6.825H1616.65V8.775H1618.65ZM1618.65 4.875V2.92499H1616.65V4.875H1618.65ZM1618.65 0.974994V0H1616.65V0.974994H1618.65Z" fill="#BCCBC9" mask="url(#path-109-inside-55_2162_30452)"/>
<mask id="path-111-inside-56_2162_30452" fill="white">
<path d="M1617.65 0H1647.06V39H1617.65V0Z"/>
</mask>
<path d="M1646.06 0V39H1648.06V0H1646.06Z" fill="#BCCBC9" mask="url(#path-111-inside-56_2162_30452)"/>
<mask id="path-113-inside-57_2162_30452" fill="white">
<path d="M1647.06 0H1676.47V39H1647.06V0Z"/>
</mask>
<path d="M1676.97 39V38.025H1675.97V39H1676.97ZM1676.97 36.075V34.125H1675.97V36.075H1676.97ZM1676.97 32.175V30.225H1675.97V32.175H1676.97ZM1676.97 28.275V26.325H1675.97V28.275H1676.97ZM1676.97 24.375V22.425H1675.97V24.375H1676.97ZM1676.97 20.475V18.525H1675.97V20.475H1676.97ZM1676.97 16.575V14.625H1675.97V16.575H1676.97ZM1676.97 12.675V10.725H1675.97V12.675H1676.97ZM1676.97 8.775V6.825H1675.97V8.775H1676.97ZM1676.97 4.875V2.92499H1675.97V4.875H1676.97ZM1676.97 0.974994V0H1675.97V0.974994H1676.97ZM1677.47 39V38.025H1675.47V39H1677.47ZM1677.47 36.075V34.125H1675.47V36.075H1677.47ZM1677.47 32.175V30.225H1675.47V32.175H1677.47ZM1677.47 28.275V26.325H1675.47V28.275H1677.47ZM1677.47 24.375V22.425H1675.47V24.375H1677.47ZM1677.47 20.475V18.525H1675.47V20.475H1677.47ZM1677.47 16.575V14.625H1675.47V16.575H1677.47ZM1677.47 12.675V10.725H1675.47V12.675H1677.47ZM1677.47 8.775V6.825H1675.47V8.775H1677.47ZM1677.47 4.875V2.92499H1675.47V4.875H1677.47ZM1677.47 0.974994V0H1675.47V0.974994H1677.47Z" fill="#BCCBC9" mask="url(#path-113-inside-57_2162_30452)"/>
<mask id="path-115-inside-58_2162_30452" fill="white">
<path d="M1676.47 0H1705.88V39H1676.47V0Z"/>
</mask>
<path d="M1704.88 0V39H1706.88V0H1704.88Z" fill="#BCCBC9" fill-opacity="0.5" mask="url(#path-115-inside-58_2162_30452)"/>
<mask id="path-117-inside-59_2162_30452" fill="white">
<path d="M1705.88 0H1735.29V39H1705.88V0Z"/>
</mask>
<path d="M1735.79 39V38.025H1734.79V39H1735.79ZM1735.79 36.075V34.125H1734.79V36.075H1735.79ZM1735.79 32.175V30.225H1734.79V32.175H1735.79ZM1735.79 28.275V26.325H1734.79V28.275H1735.79ZM1735.79 24.375V22.425H1734.79V24.375H1735.79ZM1735.79 20.475V18.525H1734.79V20.475H1735.79ZM1735.79 16.575V14.625H1734.79V16.575H1735.79ZM1735.79 12.675V10.725H1734.79V12.675H1735.79ZM1735.79 8.775V6.825H1734.79V8.775H1735.79ZM1735.79 4.875V2.92499H1734.79V4.875H1735.79ZM1735.79 0.974994V0H1734.79V0.974994H1735.79ZM1736.29 39V38.025H1734.29V39H1736.29ZM1736.29 36.075V34.125H1734.29V36.075H1736.29ZM1736.29 32.175V30.225H1734.29V32.175H1736.29ZM1736.29 28.275V26.325H1734.29V28.275H1736.29ZM1736.29 24.375V22.425H1734.29V24.375H1736.29ZM1736.29 20.475V18.525H1734.29V20.475H1736.29ZM1736.29 16.575V14.625H1734.29V16.575H1736.29ZM1736.29 12.675V10.725H1734.29V12.675H1736.29ZM1736.29 8.775V6.825H1734.29V8.775H1736.29ZM1736.29 4.875V2.92499H1734.29V4.875H1736.29ZM1736.29 0.974994V0H1734.29V0.974994H1736.29Z" fill="#BCCBC9" mask="url(#path-117-inside-59_2162_30452)"/>
<mask id="path-119-inside-60_2162_30452" fill="white">
<path d="M1735.29 0H1764.71V39H1735.29V0Z"/>
</mask>
<path d="M1763.71 0V39H1765.71V0H1763.71Z" fill="#BCCBC9" mask="url(#path-119-inside-60_2162_30452)"/>
<mask id="path-121-inside-61_2162_30452" fill="white">
<path d="M1764.71 0H1794.12V39H1764.71V0Z"/>
</mask>
<path d="M1794.62 39V38.025H1793.62V39H1794.62ZM1794.62 36.075V34.125H1793.62V36.075H1794.62ZM1794.62 32.175V30.225H1793.62V32.175H1794.62ZM1794.62 28.275V26.325H1793.62V28.275H1794.62ZM1794.62 24.375V22.425H1793.62V24.375H1794.62ZM1794.62 20.475V18.525H1793.62V20.475H1794.62ZM1794.62 16.575V14.625H1793.62V16.575H1794.62ZM1794.62 12.675V10.725H1793.62V12.675H1794.62ZM1794.62 8.775V6.825H1793.62V8.775H1794.62ZM1794.62 4.875V2.92499H1793.62V4.875H1794.62ZM1794.62 0.974994V0H1793.62V0.974994H1794.62ZM1795.12 39V38.025H1793.12V39H1795.12ZM1795.12 36.075V34.125H1793.12V36.075H1795.12ZM1795.12 32.175V30.225H1793.12V32.175H1795.12ZM1795.12 28.275V26.325H1793.12V28.275H1795.12ZM1795.12 24.375V22.425H1793.12V24.375H1795.12ZM1795.12 20.475V18.525H1793.12V20.475H1795.12ZM1795.12 16.575V14.625H1793.12V16.575H1795.12ZM1795.12 12.675V10.725H1793.12V12.675H1795.12ZM1795.12 8.775V6.825H1793.12V8.775H1795.12ZM1795.12 4.875V2.92499H1793.12V4.875H1795.12ZM1795.12 0.974994V0H1793.12V0.974994H1795.12Z" fill="#BCCBC9" mask="url(#path-121-inside-61_2162_30452)"/>
<mask id="path-123-inside-62_2162_30452" fill="white">
<path d="M1794.12 0H1823.53V39H1794.12V0Z"/>
</mask>
<path d="M1822.53 0V39H1824.53V0H1822.53Z" fill="#BCCBC9" fill-opacity="0.5" mask="url(#path-123-inside-62_2162_30452)"/>
<mask id="path-125-inside-63_2162_30452" fill="white">
<path d="M1823.53 0H1852.94V39H1823.53V0Z"/>
</mask>
<path d="M1853.44 39V38.025H1852.44V39H1853.44ZM1853.44 36.075V34.125H1852.44V36.075H1853.44ZM1853.44 32.175V30.225H1852.44V32.175H1853.44ZM1853.44 28.275V26.325H1852.44V28.275H1853.44ZM1853.44 24.375V22.425H1852.44V24.375H1853.44ZM1853.44 20.475V18.525H1852.44V20.475H1853.44ZM1853.44 16.575V14.625H1852.44V16.575H1853.44ZM1853.44 12.675V10.725H1852.44V12.675H1853.44ZM1853.44 8.775V6.825H1852.44V8.775H1853.44ZM1853.44 4.875V2.92499H1852.44V4.875H1853.44ZM1853.44 0.974994V0H1852.44V0.974994H1853.44ZM1853.94 39V38.025H1851.94V39H1853.94ZM1853.94 36.075V34.125H1851.94V36.075H1853.94ZM1853.94 32.175V30.225H1851.94V32.175H1853.94ZM1853.94 28.275V26.325H1851.94V28.275H1853.94ZM1853.94 24.375V22.425H1851.94V24.375H1853.94ZM1853.94 20.475V18.525H1851.94V20.475H1853.94ZM1853.94 16.575V14.625H1851.94V16.575H1853.94ZM1853.94 12.675V10.725H1851.94V12.675H1853.94ZM1853.94 8.775V6.825H1851.94V8.775H1853.94ZM1853.94 4.875V2.92499H1851.94V4.875H1853.94ZM1853.94 0.974994V0H1851.94V0.974994H1853.94Z" fill="#BCCBC9" mask="url(#path-125-inside-63_2162_30452)"/>
<mask id="path-127-inside-64_2162_30452" fill="white">
<path d="M1852.94 0H1882.35V39H1852.94V0Z"/>
</mask>
<path d="M1881.35 0V39H1883.35V0H1881.35Z" fill="#BCCBC9" mask="url(#path-127-inside-64_2162_30452)"/>
<mask id="path-129-inside-65_2162_30452" fill="white">
<path d="M1882.35 0H1911.76V39H1882.35V0Z"/>
</mask>
<path d="M1912.26 39V38.025H1911.26V39H1912.26ZM1912.26 36.075V34.125H1911.26V36.075H1912.26ZM1912.26 32.175V30.225H1911.26V32.175H1912.26ZM1912.26 28.275V26.325H1911.26V28.275H1912.26ZM1912.26 24.375V22.425H1911.26V24.375H1912.26ZM1912.26 20.475V18.525H1911.26V20.475H1912.26ZM1912.26 16.575V14.625H1911.26V16.575H1912.26ZM1912.26 12.675V10.725H1911.26V12.675H1912.26ZM1912.26 8.775V6.825H1911.26V8.775H1912.26ZM1912.26 4.875V2.92499H1911.26V4.875H1912.26ZM1912.26 0.974994V0H1911.26V0.974994H1912.26ZM1912.76 39V38.025H1910.76V39H1912.76ZM1912.76 36.075V34.125H1910.76V36.075H1912.76ZM1912.76 32.175V30.225H1910.76V32.175H1912.76ZM1912.76 28.275V26.325H1910.76V28.275H1912.76ZM1912.76 24.375V22.425H1910.76V24.375H1912.76ZM1912.76 20.475V18.525H1910.76V20.475H1912.76ZM1912.76 16.575V14.625H1910.76V16.575H1912.76ZM1912.76 12.675V10.725H1910.76V12.675H1912.76ZM1912.76 8.775V6.825H1910.76V8.775H1912.76ZM1912.76 4.875V2.92499H1910.76V4.875H1912.76ZM1912.76 0.974994V0H1910.76V0.974994H1912.76Z" fill="#BCCBC9" mask="url(#path-129-inside-65_2162_30452)"/>
<mask id="path-131-inside-66_2162_30452" fill="white">
<path d="M1911.76 0H1941.18V39H1911.76V0Z"/>
</mask>
<path d="M1940.18 0V39H1942.18V0H1940.18Z" fill="#BCCBC9" fill-opacity="0.5" mask="url(#path-131-inside-66_2162_30452)"/>
<mask id="path-133-inside-67_2162_30452" fill="white">
<path d="M1941.18 0H1970.59V39H1941.18V0Z"/>
</mask>
<path d="M1971.09 39V38.025H1970.09V39H1971.09ZM1971.09 36.075V34.125H1970.09V36.075H1971.09ZM1971.09 32.175V30.225H1970.09V32.175H1971.09ZM1971.09 28.275V26.325H1970.09V28.275H1971.09ZM1971.09 24.375V22.425H1970.09V24.375H1971.09ZM1971.09 20.475V18.525H1970.09V20.475H1971.09ZM1971.09 16.575V14.625H1970.09V16.575H1971.09ZM1971.09 12.675V10.725H1970.09V12.675H1971.09ZM1971.09 8.775V6.825H1970.09V8.775H1971.09ZM1971.09 4.875V2.92499H1970.09V4.875H1971.09ZM1971.09 0.974994V0H1970.09V0.974994H1971.09ZM1971.59 39V38.025H1969.59V39H1971.59ZM1971.59 36.075V34.125H1969.59V36.075H1971.59ZM1971.59 32.175V30.225H1969.59V32.175H1971.59ZM1971.59 28.275V26.325H1969.59V28.275H1971.59ZM1971.59 24.375V22.425H1969.59V24.375H1971.59ZM1971.59 20.475V18.525H1969.59V20.475H1971.59ZM1971.59 16.575V14.625H1969.59V16.575H1971.59ZM1971.59 12.675V10.725H1969.59V12.675H1971.59ZM1971.59 8.775V6.825H1969.59V8.775H1971.59ZM1971.59 4.875V2.92499H1969.59V4.875H1971.59ZM1971.59 0.974994V0H1969.59V0.974994H1971.59Z" fill="#BCCBC9" mask="url(#path-133-inside-67_2162_30452)"/>
<mask id="path-135-inside-68_2162_30452" fill="white">
<path d="M1970.59 0H2000V39H1970.59V0Z"/>
</mask>
<path d="M1999 0V39H2001V0H1999Z" fill="#BCCBC9" mask="url(#path-135-inside-68_2162_30452)"/>
</svg>
