<svg width="17" height="16" viewBox="0 0 17 16" fill="none" xmlns="http://www.w3.org/2000/svg">
<path d="M0.922943 6.18413C0.922943 4.88973 0.922943 3.59533 0.929294 2.30216C0.921025 1.78822 1.09611 1.28715 1.42519 0.882991C1.75427 0.478826 2.21734 0.196135 2.73675 0.0823174C2.98311 0.0261153 3.23555 -0.00145566 3.48869 0.000191747C5.62004 0.000191747 7.75181 0.000191747 9.884 0.000191747C11.4844 0.000191747 12.4561 0.956281 12.4574 2.50809C12.4574 4.98411 12.4574 7.45973 12.4574 9.93494C12.4574 11.472 11.4577 12.4416 9.87384 12.4428C7.75689 12.4428 5.6357 12.4428 3.51028 12.4428C1.91876 12.4441 0.922943 11.4831 0.922943 9.94352C0.922943 8.68998 0.922943 7.43685 0.922943 6.18413ZM10.4251 6.25154C10.4251 4.99882 10.4251 3.74569 10.4251 2.49215C10.4251 2.06436 10.3235 1.95895 9.89162 1.95895H3.49758C3.0581 1.95895 2.95776 2.05946 2.95776 2.48235C2.95776 4.97798 2.95776 7.47403 2.95776 9.97049C2.95776 10.3909 3.04413 10.4767 3.46583 10.4767H9.89289C10.3336 10.4767 10.42 10.3897 10.42 9.94965C10.4242 8.71817 10.4259 7.48547 10.4251 6.25154Z" fill="white"/>
<path d="M6.68646 5.56625C6.38038 5.56625 6.07557 5.56625 5.76948 5.56625C5.10906 5.55522 4.66581 5.16915 4.65946 4.60167C4.65311 4.0342 5.10144 3.5991 5.75932 3.59052C6.38038 3.58316 7.0027 3.58194 7.62376 3.59052C8.28164 3.60032 8.7287 4.02194 8.71981 4.6078C8.71981 5.15812 8.26767 5.55277 7.63519 5.56503C7.31894 5.57116 7.0027 5.56625 6.68646 5.56625Z" fill="white"/>
<path d="M6.70924 6.88261C7.04579 6.88261 7.38362 6.87403 7.72526 6.88261C7.99156 6.88803 8.24515 6.99353 8.43206 7.17666C8.61897 7.35979 8.72445 7.60608 8.72604 7.86312C8.72306 8.11999 8.61574 8.36546 8.42716 8.54676C8.23858 8.72806 7.98382 8.8307 7.71764 8.83261C7.03182 8.84405 6.34685 8.84405 5.66273 8.83261C5.53028 8.8323 5.39922 8.80659 5.27716 8.75698C5.1551 8.70737 5.04448 8.63484 4.95171 8.54361C4.85895 8.45237 4.7859 8.34426 4.73681 8.22555C4.68772 8.10683 4.66357 7.97989 4.66576 7.85209C4.66807 7.59543 4.77457 7.34988 4.9624 7.16816C5.15023 6.98643 5.4044 6.88303 5.67035 6.88016C6.01326 6.87403 6.36125 6.88138 6.70924 6.88261Z" fill="white"/>
<path d="M16.139 10.3504C16.139 11.521 16.139 12.6903 16.139 13.8609C16.139 14.8832 15.5256 15.6652 14.5361 15.9202C14.3437 15.9694 14.1457 15.9949 13.9467 15.9962C11.4979 16.0011 9.04901 16.0011 6.60015 15.9962C5.7936 15.9962 5.27283 15.3073 5.53068 14.6099C5.68945 14.1796 6.09844 13.9394 6.68271 13.9381C8.30936 13.9381 9.93643 13.9381 11.5639 13.9381H13.2812C13.8375 13.9381 14.0014 13.7763 14.0014 13.2321C14.0014 11.1009 14.0014 8.96934 14.0014 6.83734C14.0014 6.16318 14.4218 5.7121 15.048 5.70107C15.6742 5.69004 16.134 6.13253 16.1378 6.76748C16.1441 7.96749 16.139 9.15648 16.139 10.3504Z" fill="white"/>
</svg>
