<svg width="14" height="16" viewBox="0 0 14 16" fill="none" xmlns="http://www.w3.org/2000/svg">
<g clip-path="url(#clip0_1065_15736)">
<path d="M6.73914 16.0021H2.22181C0.977891 16.0021 0.252914 15.2991 0.252914 14.0893C0.252914 12.1243 0.263932 10.1592 0.252914 8.19415C0.252914 7.43671 0.519547 6.84464 1.22469 6.47445C1.4164 6.37311 1.44505 6.20988 1.44505 6.02319C1.46158 5.46418 1.44505 4.89984 1.51997 4.3483C1.83949 2.08133 3.77203 0.291229 6.13536 0.0341276C7.26932 -0.0985629 8.41717 0.127778 9.40721 0.679294C10.3973 1.23081 11.1763 2.07786 11.6278 3.09374C11.9493 3.82408 12.0998 4.6143 12.0685 5.40764C12.0685 5.46952 12.0685 5.53246 12.0685 5.59327C12.0255 6.03599 12.0784 6.39444 12.5522 6.66008C13.0766 6.95878 13.2584 7.49646 13.2573 8.08427C13.2573 10.1112 13.2573 12.1381 13.2573 14.1651C13.2573 15.2746 12.5015 15.9904 11.3457 15.9925C9.80836 15.9989 8.27283 16.0021 6.73914 16.0021ZM6.75347 6.27816C7.59854 6.27816 8.44251 6.27816 9.28758 6.27816C9.6115 6.27816 9.70626 6.19175 9.70736 5.88557C9.70736 5.54846 9.70736 5.21028 9.68312 4.87424C9.62789 4.26423 9.36967 3.68806 8.94726 3.23232C8.52486 2.77658 7.9611 2.4659 7.34072 2.34697C6.70674 2.22491 6.04896 2.30611 5.46689 2.57828C4.88482 2.85045 4.41014 3.29878 4.11468 3.85544C3.79406 4.47845 3.79076 5.13561 3.79847 5.80876C3.79847 6.20882 3.87009 6.27816 4.27665 6.27816H6.75347ZM6.78982 9.71755C6.39999 9.71003 6.02273 9.85125 5.7395 10.1107C5.45626 10.3702 5.28977 10.7271 5.27597 11.1044C5.24512 11.864 5.90288 12.5339 6.7149 12.5691C7.48615 12.6022 8.18689 11.9643 8.22876 11.1823C8.27063 10.4216 7.61066 9.75276 6.79093 9.71755H6.78982Z" fill="white"/>
</g>
<defs>
<clipPath id="clip0_1065_15736">
<rect width="13" height="16" fill="white" transform="translate(0.252914)"/>
</clipPath>
</defs>
</svg>
