<svg width="19" height="18" viewBox="0 0 19 18" fill="none" xmlns="http://www.w3.org/2000/svg">
<path d="M9.30125 17H5.73067C5.05015 17 4.71204 16.6643 4.70989 15.9832C4.70989 14.9526 4.70989 13.9208 4.70989 12.8901C4.70989 12.4988 4.63451 12.424 4.24149 12.4229C3.75802 12.4229 3.27239 12.4229 2.79215 12.4229C1.85213 12.4133 1.26636 11.8338 1.2599 10.9047C1.2599 9.63384 1.2599 8.36367 1.2599 7.09422C1.2599 6.17581 1.84567 5.5974 2.76739 5.58243C3.25947 5.57601 3.75156 5.58243 4.24364 5.58243C4.63774 5.58243 4.70666 5.51293 4.70666 5.11093C4.70666 4.07919 4.70666 3.04851 4.70666 2.01784C4.70953 1.33928 5.05158 1 5.73282 1H12.9009C13.5803 1 13.9206 1.33679 13.9217 2.01677C13.9217 3.04744 13.9217 4.07812 13.9217 5.10986C13.9217 5.51293 13.9874 5.57708 14.3869 5.57815C14.8703 5.57815 15.3559 5.57815 15.8373 5.57815C16.7773 5.58563 17.3641 6.16298 17.3674 7.09315C17.3731 8.36474 17.3731 9.63562 17.3674 10.9058C17.3674 11.8338 16.7762 12.4122 15.8362 12.4208C15.3441 12.4208 14.852 12.4208 14.3599 12.4208C14.0024 12.4208 13.9228 12.5052 13.9228 12.8645C13.9228 13.8962 13.9228 14.9269 13.9228 15.9576C13.9228 16.6728 13.5911 16.9979 12.8708 16.9979L9.30125 17ZM9.31309 7.28453C10.1347 7.28453 10.9573 7.28453 11.78 7.28453C12.103 7.28453 12.1935 7.20114 12.1935 6.87184C12.1935 5.62947 12.1935 4.38639 12.1935 3.1426C12.1935 2.82185 12.0998 2.71494 11.7854 2.71494C10.1401 2.71494 8.4951 2.71494 6.85051 2.71494C6.52748 2.71494 6.43703 2.8133 6.43703 3.13405C6.43703 4.37713 6.43703 5.6202 6.43703 6.86328C6.43703 7.20435 6.51994 7.28132 6.86774 7.28239L9.31309 7.28453ZM9.31309 15.2851C10.1357 15.2851 10.9584 15.2851 11.78 15.2851C12.103 15.2851 12.1902 15.2017 12.1924 14.898C12.1924 14.2052 12.1924 13.5081 12.1924 12.8207C12.1924 12.5181 12.0922 12.4251 11.7832 12.4251C10.1386 12.4251 8.49403 12.4251 6.84944 12.4251C6.53286 12.4251 6.43918 12.5234 6.43811 12.8452C6.43811 13.511 6.43811 14.1767 6.43811 14.8424C6.43811 15.2156 6.51348 15.2851 6.90112 15.2851H9.31309ZM14.1909 10.7144C14.4676 10.7144 14.7454 10.7144 15.0221 10.7144C15.3839 10.708 15.6413 10.4706 15.6434 10.152C15.6456 9.83341 15.399 9.58537 15.0361 9.58216C14.4812 9.57575 13.9267 9.57575 13.3725 9.58216C13.0075 9.58216 12.7631 9.82272 12.7652 10.152C12.7674 10.4813 13.0258 10.7101 13.3855 10.7155C13.6557 10.7187 13.9238 10.7144 14.192 10.7144H14.1909Z" fill="white"/>
</svg>
