<svg width="17" height="16" viewBox="0 0 17 16" fill="none" xmlns="http://www.w3.org/2000/svg">
<g clip-path="url(#clip0_1065_15729)">
<path d="M0.140991 7.1496C0.140991 5.78125 0.140991 4.41326 0.140991 3.04563C0.140991 1.8633 0.849658 1.15775 2.04082 1.14813C2.33592 1.14813 2.63102 1.14813 2.92612 1.14813C3.16198 1.14813 3.2826 1.04122 3.31384 0.800695C3.37953 0.299325 3.71448 0.00641411 4.21959 0C4.95339 0 5.68683 0 6.41991 0C6.91964 0 7.26966 0.301463 7.32674 0.796419C7.35798 1.06047 7.49906 1.14278 7.73816 1.14599C8.13988 1.14599 8.54376 1.13957 8.9444 1.17271C9.90724 1.25396 10.5599 2.06534 10.4985 3.12047C10.4856 3.33427 10.3563 3.42193 10.1377 3.423C9.50336 3.423 8.86578 3.40589 8.23573 3.46362C6.30575 3.64215 4.75594 5.35578 4.75056 7.29498C4.74409 9.07169 4.75056 10.8484 4.75056 12.6251C4.75056 13.0794 4.68271 13.1468 4.21959 13.1468C3.47754 13.1468 2.73441 13.1553 1.99236 13.1468C0.848581 13.1297 0.140991 12.4134 0.140991 11.2803C0.140991 10.4539 0.140991 9.62758 0.140991 8.80123V7.1496Z" fill="white"/>
<path d="M6.47485 10.5384C6.47485 9.41057 6.46731 8.28169 6.47485 7.15387C6.46759 6.70511 6.61636 6.26757 6.8961 5.91494C7.17583 5.56231 7.56945 5.31614 8.01065 5.21788C8.22005 5.17011 8.43448 5.14749 8.64931 5.15053C10.4572 5.14554 12.2652 5.14554 14.0731 5.15053C15.429 5.15053 16.254 5.98437 16.254 7.33774C16.254 9.49716 16.254 11.6562 16.254 13.8149C16.254 15.1555 15.4075 16 14.0634 16.0011C12.2648 16.0011 10.4662 16.0011 8.66762 16.0011C7.31814 16.0011 6.477 15.163 6.47592 13.8203V10.5384H6.47485ZM14.5297 10.5993V7.32064C14.5297 6.94755 14.4425 6.85562 14.0774 6.85562C12.2702 6.85562 10.4626 6.85562 8.6547 6.85562C8.28206 6.85562 8.19697 6.94328 8.19697 7.31209V13.8427C8.19697 14.2083 8.27129 14.2842 8.62777 14.2842H14.0763C14.4511 14.2842 14.5233 14.2073 14.5244 13.8246L14.5297 10.5993Z" fill="white"/>
<path d="M11.359 10.0006C11.1006 10.0006 10.841 10.0006 10.5825 10.0006C10.0214 9.9921 9.64553 9.65429 9.64015 9.1604C9.63476 8.66652 10.016 8.28488 10.5728 8.27846C11.1006 8.27062 11.6279 8.27062 12.1549 8.27846C12.7128 8.28701 13.0909 8.65476 13.0844 9.16575C13.0779 9.64573 12.701 9.98996 12.1636 10.0006C11.8954 10.0049 11.6272 10.0006 11.359 10.0006Z" fill="white"/>
<path d="M11.3784 11.1477C11.6649 11.1477 11.9514 11.1413 12.24 11.1477C12.4661 11.1514 12.6817 11.2431 12.8402 11.4031C12.9988 11.5631 13.0877 11.7785 13.0876 12.0029C13.0865 12.2273 12.9959 12.4421 12.8356 12.6004C12.6754 12.7586 12.4585 12.8475 12.2325 12.8475C11.6523 12.8581 11.0715 12.8581 10.4899 12.8475C10.3777 12.847 10.2667 12.8245 10.1633 12.7812C10.0599 12.7378 9.9662 12.6746 9.88765 12.595C9.8091 12.5154 9.74725 12.4212 9.70569 12.3177C9.66412 12.2143 9.64368 12.1036 9.64553 11.9922C9.64721 11.7682 9.7374 11.5537 9.89671 11.395C10.056 11.2363 10.2717 11.146 10.4974 11.1434C10.7893 11.1413 11.0844 11.1477 11.3784 11.1477Z" fill="white"/>
</g>
<defs>
<clipPath id="clip0_1065_15729">
<rect width="16.1119" height="16" fill="white" transform="translate(0.140991)"/>
</clipPath>
</defs>
</svg>
