<svg width="19" height="16" viewBox="0 0 19 16" fill="none" xmlns="http://www.w3.org/2000/svg">
<path d="M12.5964 16H6.00634C5.47913 16 5.08373 15.6046 5.08373 15.0774C5.08373 14.5502 5.47913 14.1548 6.00634 14.1548H12.5964C13.7827 14.1548 14.8371 13.7594 15.6279 12.8367C16.4187 12.0459 16.9459 10.9915 16.9459 9.80529C16.9459 8.61907 16.5505 7.56466 15.6279 6.77384C14.8371 5.98303 13.7827 5.45582 12.5964 5.45582H1.78867C1.26146 5.45582 0.734253 5.06041 0.734253 4.4014C0.734253 3.87419 1.12966 3.34698 1.78867 3.34698H12.5964C14.3099 3.34698 15.8915 4.006 17.0777 5.19222C18.2639 6.37844 18.923 7.96006 18.923 9.67349C18.923 11.3869 18.2639 12.9685 17.0777 14.1548C15.8915 15.4728 14.3099 16 12.5964 16Z" fill="white"/>
<path d="M5.34732 9.14627C5.08371 9.14627 4.95191 9.01446 4.6883 8.88266C3.10668 7.56464 2.31587 6.77383 0.997844 5.1922C0.734239 4.79679 0.734239 4.26958 0.997844 3.87418C2.31587 2.29255 3.10668 1.50174 4.6883 0.183716C5.08371 -0.0798883 5.74272 -0.0798884 6.13813 0.315518C6.53354 0.710925 6.40173 1.36994 6.00633 1.76534C4.6883 2.81976 4.02929 3.47877 3.10668 4.53319C4.02929 5.58761 4.6883 6.24662 6.00633 7.30103C6.40173 7.69644 6.53354 8.22365 6.13813 8.75086C5.87452 9.01446 5.61092 9.14627 5.34732 9.14627Z" fill="white"/>
</svg>
